<svg height="40pt" viewBox="-7 0 512 512.002" width="40pt" xmlns="http://www.w3.org/2000/svg" fill="#fac733">
<path d="m302.09375 124.800781c4.144531 0 7.5-3.359375 7.5-7.5v-12.453125c0-4.140625-3.355469-7.5-7.5-7.5s-7.5 3.359375-7.5 7.5v12.453125c0 4.140625 3.355469 7.5 7.5 7.5zm0 0"/>
<path d="m178.480469 97.347656c-4.140625 0-7.5 3.359375-7.5 7.5v12.453125c0 4.140625 3.359375 7.5 7.5 7.5 4.144531 0 7.5-3.359375 7.5-7.5v-12.453125c0-4.140625-3.355469-7.5-7.5-7.5zm0 0"/>
<path d="m257.945312 118.042969c2.277344-3.460938 1.3125-8.113281-2.148437-10.386719-1.269531-.832031-6.882813-2.992188-10.386719 2.152344-1.679687 2.464844-4.128906 2.761718-5.125 2.761718-.992187 0-3.480468-.265624-5.121094-2.761718-2.273437-3.460938-6.925781-4.425782-10.386718-2.152344-3.460938 2.273438-4.425782 6.925781-2.148438 10.386719 3.917969 5.96875 10.519532 9.527343 17.65625 9.527343 7.140625 0 13.742188-3.5625 17.660156-9.527343zm0 0"/><path d="m497.671875 389.359375c0-67.449219-54.875-122.324219-122.324219-122.324219-20.824218 0-40.441406 5.234375-57.621094 14.445313v-3.285157c12.238282-8.492187 23.027344-18.933593 31.90625-30.882812 32.964844-3.351562 60.859376-14.390625 82.925782-32.878906 20.804687-17.433594 35.902344-40.902344 44.878906-69.753906 6.519531-20.941407 3.722656-43.855469-10.269531-60.835938-25.652344-31.128906-63.777344-28.09375-63.777344-28.09375 4.078125-5.765625 6.484375-12.792969 6.484375-20.375.003906-19.507812-15.867188-35.375-35.371094-35.375h-268.429687c-19.507813 0-35.375 15.867188-35.375 35.375 0 7.582031 2.40625 14.609375 6.484375 20.375 0 0-39.59375-4.753906-63.777344 28.09375-13.042969 17.71875-16.785156 39.890625-10.269531 60.835938 8.632812 27.75 22.953125 50.550781 42.558593 67.761718 1.425782 1.25 6.609376 3.679688 10.585938-.6875 2.789062-3.0625 2.425781-7.851562-.6875-10.582031-17.5-15.367187-30.332031-35.871094-38.132812-60.949219-5.085938-16.339844-2.160157-33.648437 8.027343-47.488281 10.285157-13.972656 26.125-21.984375 43.457031-21.984375h35.175782v20.796875h-35.179688c-10.648437 0-20.382812 4.925781-26.707031 13.515625-6.226563 8.457031-8.019531 19.023438-4.921875 28.984375 11.933594 38.355469 36.527344 62.960937 73.117188 73.199219 2.59375 8.203125 5.941406 16.070312 9.96875 23.523437-15.300782-2.636719-29.253907-7.222656-41.621094-13.707031-3.667969-1.921875-8.199219-.511719-10.125 3.160156-1.921875 3.667969-.507813 8.199219 3.160156 10.125 17.25 9.042969 37.132812 14.746094 59.144531 16.988282 8.875 11.9375 19.660157 22.375 31.894531 30.863281v12.351562c0 21.304688 13.191407 39.574219 31.828126 47.101563-.5625 10.941406-2.484376 21.179687-5.65625 30.011718h-17.617188c-25.675781 0-46.566406 20.890626-46.566406 46.566407v33.40625c-16.46875 1.429687-29.4375 15.285156-29.4375 32.117187 0 17.78125 14.464844 32.25 32.246094 32.25h247.699218c63.285156-.003906 122.324219-55.398437 122.324219-122.644531zm-212.832031-57.625 3.296875 31.011719-20 21.660156c.882812-19.316406 6.890625-37.320312 16.703125-52.671875zm41.371094-37.773437 41.632812 18.566406v35.332031l-31.339844 22.769531-33.605468-10.921875-4.765626-44.8125c8.121094-8.417969 17.597657-15.515625 28.078126-20.933593zm49.132812 66.992187 28.710938 20.855469-10.964844 33.75h-35.488282l-10.964843-33.75zm-77.136719 13 33.660157 10.941406 11.972656 36.84375-20.78125 28.59375-41.398438-8.664062c-6.195312-11.050781-10.496094-23.300781-12.449218-36.3125zm23.195313 91.359375 13.101562 23.292969c-15.578125-6.433594-29.324218-16.425781-40.210937-28.96875zm33.78125 29.46875-20.015625-35.59375 20.804687-28.628906h38.746094l20.839844 28.671875-19.4375 35.429687c-18.445313 3.980469-34.402344 1.367188-40.9375.121094zm72.449218-44.449219-20.78125-28.589843 11.96875-36.84375 33.609376-10.925782 28.953124 32.035156c-1.996093 12.761719-6.253906 24.78125-12.339843 35.644532zm38.3125-118.453125c9.847657 15.46875 15.839844 33.613282 16.628907 53.082032l-20.015625-22.15625zm-13.246093-16.839844-4.890625 44.664063-33.621094 10.929687-31.34375-22.769531v-35.351562l41.429688-18.660157c10.625 5.464844 20.222656 12.652344 28.425781 21.1875zm-47.863281-28.886718-29.507813 13.289062-29.664063-13.230468c29.683594-7.203126 49.796876-2.738282 59.171876-.058594zm50.253906-193.417969c10.1875 13.839844 13.109375 31.148437 8.027344 47.488281-8.109376 26.058594-21.632813 47.160156-40.191407 62.714844-17.007812 14.25-38.070312 23.5625-62.738281 27.816406 4.023438-7.449218 7.367188-15.3125 9.960938-23.511718 36.589843-10.238282 61.179687-34.839844 73.113281-73.195313 3.101562-9.960937 1.308593-20.527344-4.917969-28.984375-6.324219-8.589844-16.0625-13.519531-26.710938-13.519531h-35.179687v-20.792969h35.179687c17.332032 0 33.167969 8.015625 43.457032 21.984375zm-78.636719 13.808594h35.179687c5.832032 0 11.164063 2.703125 14.628907 7.410156 3.371093 4.578125 4.347656 10.277344 2.679687 15.636719-9.53125 30.621094-27.445312 50.53125-54.585937 60.550781 1.378906-7.753906 2.097656-15.738281 2.097656-23.882813zm-324.816406 23.046875c-1.667969-5.359375-.691407-11.058594 2.675781-15.636719 3.46875-4.707031 8.800781-7.410156 14.628906-7.410156h35.179688v59.714843c0 8.144532.722656 16.125 2.097656 23.882813-27.136719-10.019531-45.054688-29.929687-54.582031-60.550781zm67.484375 36.667968v-95.507812h218.265625c4.144531 0 7.5-3.355469 7.5-7.5 0-4.140625-3.355469-7.5-7.5-7.5h-231.3125c-11.234375 0-20.375-9.140625-20.375-20.375s9.140625-20.375 20.375-20.375h268.429687c11.230469 0 20.375 9.140625 20.375 20.375s-9.144531 20.375-20.375 20.375c0 0-13.050781-1.070312-13.050781 7.5v103.007812c0 66.8125-54.351563 121.167969-121.164063 121.167969s-121.167968-54.355469-121.167968-121.167969zm58.730468 120.984376c18.710938 9.699218 39.945313 15.183593 62.4375 15.183593 22.488282 0 43.722657-5.484375 62.4375-15.183593v3.308593c0 .148438-.007812.296875-.011718.441407-12.832032 9.503906-23.75 21.445312-32.054688 35.148437-1.230468.125-57.027344.191406-57.027344.191406-37.628906 0-35.78125-39.089843-35.78125-39.089843zm31.660157 53.90625c1.359375.113281 53.335937.183593 53.335937.183593-3.574218 8.34375-6.253906 17.160157-7.902344 26.332031h-50.117187c2.464844-8.171874 4.027344-17.039062 4.683594-26.515624zm-99.109375 138.605468c0-9.511718 7.734375-17.246094 17.246094-17.246094h119.417968c4.144532 0 7.5-3.359374 7.5-7.5 0-4.144531-3.355468-7.5-7.5-7.5h-107.226562v-33.277343c0-17.40625 14.160156-31.566407 31.566406-31.566407h81.796875c-.503906 55.441407 25.839844 93.625 64.066406 114.335938h-189.621093c-9.511719 0-17.246094-7.738281-17.246094-17.246094zm306.253906 8.660156 12.679688-23.113281 27.074218-5.671875c-10.78125 12.421875-24.363281 22.34375-39.753906 28.785156zm0 0"/></svg>