<?xml version="1.0" encoding="iso-8859-1"?>
<!-- Generator: Adobe Illustrator 19.0.0, SVG Export Plug-In . SVG Version: 6.00 Build 0)  -->
<svg version="1.1" id="Layer_1" xmlns="http://www.w3.org/2000/svg" xmlns:xlink="http://www.w3.org/1999/xlink" x="0px" y="0px"
	 viewBox="0 0 512 512" style="enable-background:new 0 0 512 512;" xml:space="preserve" fill="#fac733">
<g>
	<g>
		<path d="M483.382,265.344h-0.376v-84.328v-67.042c0-6.298-5.107-11.405-11.405-11.405h-60.055l-44.878-88.732
			c-1.365-2.698-3.747-4.745-6.622-5.688c-2.874-0.944-6.005-0.707-8.704,0.658l-185.378,93.761H46.19
			c-24.94,0-45.184,19.484-46.146,44.383c-0.001,0.036,0.001,0.074,0,0.112c-0.001,0.027-0.006,0.055-0.007,0.083
			C0.018,147.684,0,148.22,0,148.759v309.47c0,25.469,20.721,46.19,46.19,46.19H471.6c6.298,0,11.405-5.107,11.405-11.405V405.16
			h0.376c15.78,0,28.618-12.839,28.618-28.618v-82.579C512,278.183,499.161,265.344,483.382,265.344z M460.195,125.379v44.231
			h-14.742l-22.371-44.231H460.195z M173.832,124.153c0.003-0.001,0.007-0.003,0.01-0.006l177.616-89.837l42.892,84.804
			c0.001,0.002,0.002,0.006,0.003,0.008l25.537,50.489h-22.106c-0.147-0.393-0.308-0.785-0.501-1.166l-29.355-58.04
			c-2.297-4.54-7.324-7.012-12.324-6.054l-3.493,0.669c-13.373,2.571-27.127-3.507-34.234-15.108l-2.272-3.708
			c-3.103-5.064-9.571-6.899-14.872-4.219l-173.245,87.624H83.955L173.832,124.153z M372.311,169.611H178.028l123.933-62.684
			c11.671,14.96,30.449,23.057,49.381,21.225L372.311,169.611z M46.19,125.379h74.675l-83.783,42.376
			c-6.443-2.745-11.37-8.318-13.331-15.031c-0.018-0.066-0.039-0.131-0.057-0.196c-0.124-0.441-0.236-0.888-0.334-1.339
			c-0.083-0.389-0.154-0.784-0.218-1.18c-0.051-0.311-0.099-0.624-0.138-0.939c-0.066-0.549-0.113-1.103-0.141-1.663
			C23.56,135.017,33.712,125.379,46.19,125.379z M460.195,481.609H46.19c-12.892,0-23.38-10.488-23.38-23.38v-5.308h348.495
			c6.298,0,11.405-5.107,11.405-11.405c0-6.298-5.107-11.405-11.405-11.405H22.81V186.134c4.544,2.655,9.593,4.532,14.964,5.51
			c0.03,0.006,0.059,0.011,0.089,0.017c0.013,0.002,0.025,0.002,0.038,0.005c0.106,0.019,0.212,0.038,0.318,0.057
			c0.005,0,0.008,0.002,0.013,0.002c0.087,0.015,0.174,0.025,0.261,0.04c0.672,0.112,1.346,0.217,2.028,0.299
			c0.135,0.017,0.268,0.034,0.404,0.049c0.001,0,0.003,0.001,0.005,0.001c0.316,0.036,0.636,0.057,0.953,0.087
			c0.468,0.043,0.932,0.095,1.404,0.123c0.117,0.007,0.234,0.015,0.351,0.022c0.89,0.05,1.727,0.075,2.552,0.075h84.019h249.663
			h58.568h21.755v25.163H108.669c-6.298,0-11.405,5.107-11.405,11.405c0,6.298,5.107,11.405,11.405,11.405h351.527v24.951H295.216
			c-6.298,0-11.405,5.107-11.405,11.405v117.006c0,6.298,5.107,11.405,11.405,11.405h164.979V481.609z M483.382,382.35H471.6
			H306.621v-94.196H471.6h11.781c3.204,0,5.808,2.605,5.808,5.809v82.579h0C489.19,379.745,486.585,382.35,483.382,382.35z"/>
	</g>
</g>
<g>
	<g>
		<path d="M363.277,292.194c-23.743,0-43.059,19.317-43.059,43.058c0,23.743,19.317,43.059,43.059,43.059
			c23.742,0,43.058-19.317,43.058-43.059S387.02,292.194,363.277,292.194z M363.277,355.502c-11.165,0-20.25-9.084-20.25-20.25
			c0-11.164,9.084-20.248,20.25-20.248c11.164,0,20.248,9.084,20.248,20.248C383.526,346.418,374.442,355.502,363.277,355.502z"/>
	</g>
</g>
<g>
	<g>
		<path d="M417.161,439.29c-0.148-0.731-0.364-1.45-0.649-2.133c-0.285-0.696-0.64-1.357-1.05-1.973
			c-0.409-0.627-0.888-1.209-1.413-1.734c-2.657-2.646-6.592-3.866-10.299-3.114c-0.73,0.137-1.448,0.365-2.133,0.65
			c-0.684,0.285-1.346,0.64-1.972,1.049c-0.616,0.411-1.199,0.89-1.735,1.414c-0.525,0.525-1.004,1.106-1.414,1.734
			c-0.409,0.616-0.764,1.277-1.049,1.973c-0.285,0.684-0.501,1.402-0.649,2.133c-0.149,0.73-0.217,1.483-0.217,2.224
			c0,0.74,0.068,1.494,0.217,2.235c0.148,0.719,0.364,1.436,0.649,2.133c0.285,0.684,0.64,1.346,1.049,1.962
			c0.411,0.627,0.89,1.209,1.414,1.734c0.536,0.525,1.118,1.004,1.735,1.426c0.627,0.411,1.289,0.764,1.972,1.049
			c0.685,0.285,1.403,0.502,2.133,0.65c0.741,0.148,1.483,0.217,2.235,0.217c0.741,0,1.483-0.07,2.224-0.217
			c0.73-0.148,1.448-0.365,2.133-0.65c0.684-0.285,1.346-0.639,1.972-1.049c0.616-0.422,1.21-0.901,1.735-1.426
			c0.525-0.525,1.004-1.106,1.413-1.734c0.411-0.616,0.765-1.277,1.05-1.962c0.285-0.696,0.501-1.414,0.649-2.133
			c0.148-0.741,0.228-1.495,0.228-2.235C417.389,440.773,417.309,440.019,417.161,439.29z"/>
	</g>
</g>
<g>
	<g>
		<path d="M85.176,226.758c-0.147-0.73-0.365-1.448-0.65-2.132c-0.285-0.685-0.639-1.347-1.049-1.973
			c-0.422-0.616-0.901-1.209-1.426-1.734c-0.525-0.525-1.106-1.005-1.734-1.414c-0.616-0.411-1.277-0.764-1.962-1.049
			c-0.696-0.285-1.414-0.502-2.133-0.65c-1.471-0.297-2.988-0.297-4.459,0c-0.731,0.148-1.45,0.365-2.133,0.65
			c-0.696,0.285-1.357,0.639-1.973,1.049c-0.627,0.409-1.209,0.89-1.734,1.414c-0.525,0.525-1.004,1.117-1.414,1.734
			c-0.409,0.627-0.764,1.289-1.049,1.973c-0.285,0.684-0.501,1.402-0.65,2.132c-0.148,0.741-0.227,1.484-0.227,2.224
			c0,0.753,0.079,1.495,0.227,2.235c0.149,0.731,0.365,1.45,0.65,2.133c0.285,0.685,0.64,1.346,1.049,1.973
			c0.411,0.616,0.89,1.198,1.414,1.722c0.525,0.536,1.106,1.004,1.734,1.426c0.616,0.411,1.277,0.764,1.973,1.049
			c0.684,0.285,1.402,0.502,2.133,0.65c0.73,0.148,1.483,0.227,2.224,0.227c0.74,0,1.494-0.079,2.235-0.227
			c0.719-0.148,1.437-0.365,2.133-0.65c0.684-0.285,1.346-0.639,1.962-1.049c0.627-0.422,1.209-0.89,1.734-1.426
			c0.525-0.525,1.004-1.106,1.426-1.722c0.411-0.628,0.764-1.289,1.049-1.973c0.285-0.684,0.502-1.402,0.65-2.133
			c0.148-0.74,0.217-1.483,0.217-2.235C85.392,228.242,85.323,227.499,85.176,226.758z"/>
	</g>
</g>
<g>
</g>
<g>
</g>
<g>
</g>
<g>
</g>
<g>
</g>
<g>
</g>
<g>
</g>
<g>
</g>
<g>
</g>
<g>
</g>
<g>
</g>
<g>
</g>
<g>
</g>
<g>
</g>
<g>
</g>
</svg>
