<svg xmlns="http://www.w3.org/2000/svg" width="16" height="16" viewBox="0 0 16 16">
	<path fill="#ff4f00" fill-rule="evenodd" d="M15.998 1.835l-.002-.168a.336.336 0 0 0-.098-.237.29.29 0 0 0-.236-.097l-1.347.004c.01-.32.02-.654.02-1.004A.334.334 0 0 0 14 0H2.004a.333.333 0 0 0-.333.333c0 .35.008.68.02 1H.338a.333.333 0 0 0-.333.334l-.002.18C-.01 2.76-.04 5.182 1.246 6.485c.516.522 1.183.803 1.98.84.705 1.01 1.537 1.512 2.253 1.942.902.544 1.5.903 1.5 2.06C6.95 12.977 6.497 14 4.336 14a.333.333 0 0 0-.333.333v1.334c0 .184.15.333.333.333h7.33c.184 0 .334-.15.334-.333v-1.334A.334.334 0 0 0 11.67 14c-1.91 0-2.69-.773-2.69-2.667 0-1.168.605-1.532 1.52-2.083.716-.43 1.546-.93 2.253-1.925.8-.038 1.472-.32 1.99-.844 1.295-1.307 1.268-3.733 1.258-4.645zM10.18 3.932l-.9.687.353 1.292a.334.334 0 0 1-.52.354l-1.134-.85-1.134.85a.333.333 0 0 1-.397.003c-.12-.087-.167-.24-.12-.38l.446-1.27-.986-.68a.334.334 0 0 1 .19-.607h1.126l.575-1.148c.113-.226.484-.226.597 0l.574 1.148h1.13a.333.333 0 0 1 .2.6zM1.72 6.015C.688 4.97.66 2.925.667 2h1.056c.138 2.115.542 3.565 1.07 4.6a2.1 2.1 0 0 1-1.073-.585zm12.546-.002c-.297.3-.653.493-1.075.586.54-1.034.95-2.482 1.09-4.596L15.334 2c.007.933-.032 2.966-1.067 4.013z"/>
</svg>