<svg xmlns="http://www.w3.org/2000/svg" viewBox="0 0 20 20"><defs><style>.a{fill:none;}.b{fill:#34AF56;}</style></defs><rect class="a" width="20" height="20"/><g transform="translate(3 1)"><path class="b" d="M1.092,131.8H1.049A1.049,1.049,0,0,0,0,132.849v4.565a1.049,1.049,0,0,0,1.049,1.049H1.1a1.052,1.052,0,0,0,1.049-1.049v-4.565A1.056,1.056,0,0,0,1.092,131.8Zm0,0" transform="translate(0 -126.067)"/><path class="b" d="M60.8,142.806a.965.965,0,0,0,.962.962h1.031v2.467a1.052,1.052,0,0,0,1.049,1.049h.044a1.049,1.049,0,0,0,1.049-1.049v-2.467h1.44v2.467a1.052,1.052,0,0,0,1.049,1.049h.044a1.049,1.049,0,0,0,1.049-1.049v-2.467h1.031a.962.962,0,0,0,.962-.962V135.6H60.8Zm0,0" transform="translate(-58.154 -129.701)"/><path class="b" d="M67.306,1.58,68.124.318a.173.173,0,0,0-.292-.187l-.849,1.305a5.582,5.582,0,0,0-4.195,0L61.945.131a.175.175,0,0,0-.3.187l.818,1.262A4.143,4.143,0,0,0,60,5.231c0,.1,0,.191.013.283h9.748c.009-.1.013-.187.013-.283A4.128,4.128,0,0,0,67.306,1.58ZM62.628,3.839a.468.468,0,1,1,.47-.47.468.468,0,0,1-.47.47Zm4.521,0a.468.468,0,1,1,.47-.47.468.468,0,0,1-.47.47Zm0,0" transform="translate(-57.389 -0.051)"/><path class="b" d="M296.592,131.8h-.044a1.052,1.052,0,0,0-1.049,1.049v4.565a1.052,1.052,0,0,0,1.049,1.049h.044a1.052,1.052,0,0,0,1.049-1.049v-4.565a1.049,1.049,0,0,0-1.049-1.049Zm0,0" transform="translate(-282.641 -126.067)"/></g></svg>