<svg fill="#434343" xmlns="http://www.w3.org/2000/svg" id="Layer_1" data-name="Layer 1" viewBox="0 0 512 512" width="512" height="512"><title>Dice</title><circle cx="362.271" cy="367.555" r="45.842"/><circle cx="149.729" cy="367.555" r="45.842"/><circle cx="362.271" cy="144.445" r="45.842"/><circle cx="256" cy="256" r="45.842"/><path d="M436.03 39H75.97A36.97 36.97.0 0 0 39 75.97V436.03A36.97 36.97.0 0 0 75.97 473H436.03A36.97 36.97.0 0 0 473 436.03V75.97A36.97 36.97.0 0 0 436.03 39zm-286.3 45.6a59.842 59.842.0 1 1-59.842 59.842A59.91 59.91.0 0 1 149.729 84.6zm0 342.794a59.842 59.842.0 1 1 59.842-59.842A59.91 59.91.0 0 1 149.729 427.4zM256 315.842A59.842 59.842.0 1 1 315.842 256 59.91 59.91.0 0 1 256 315.842zM362.271 427.4a59.842 59.842.0 1 1 59.842-59.842A59.91 59.91.0 0 1 362.271 427.4zm0-223.11a59.842 59.842.0 1 1 59.842-59.842A59.91 59.91.0 0 1 362.271 204.287z"/><circle cx="149.729" cy="144.445" r="45.842"/></svg>