<svg xmlns="http://www.w3.org/2000/svg" xmlns:xlink="http://www.w3.org/1999/xlink" width="512" height="512" viewBox="0 0 58 58"><title>010 - Idea</title><desc>Created with Sketch.</desc><defs/><g id="Page-1" stroke="none" stroke-width="1" fill="none" fill-rule="evenodd"><g id="010---Idea" fill="#434343" fill-rule="nonzero"><path d="M54 21h3C57.5522847 21 58 20.5522847 58 20 58 19.4477153 57.5522847 19 57 19H54C53.4477153 19 53 19.4477153 53 20 53 20.5522847 53.4477153 21 54 21z" id="Shape"/><path d="M49.313 9.687C49.5785413 9.68720875 49.8332623 9.58179456 50.021 9.394L52.142 7.272C52.4019566 7.02092553 52.5062126 6.64912211 52.4146972 6.29949268 52.3231817 5.94986324 52.0501368 5.67681828 51.7005073 5.58530284 51.3508779 5.4937874 50.9790745 5.59804342 50.728 5.858L48.606 7.979C48.3193761 8.26489995 48.2334066 8.69540717 48.3882414 9.06946359 48.5430763 9.44352001 48.9081643 9.68731896 49.313 9.687z" id="Shape"/><path d="M38 45C39.1045695 45 40 44.1045695 40 43H36C36 44.1045695 36.8954305 45 38 45z" id="Shape"/><path d="M34 20C33.4477153 20 33 20.4477153 33 21 33 21.5522847 33.4477153 22 34 22h1V21C35 20.4477153 34.5522847 20 34 20z" id="Shape"/><path d="M1.42 36.181C2.275 36.617 3.447 37.214 3.681 38.44 3.82607158 39.1954993 3.73204404 39.977431 3.412 40.677 3.241 41.036 3.065 41.349 2.912 41.62 2.859 41.712 2.802 41.814 2.751 41.908 3.162 42.236 3.733 42.664 3.974 42.842 4.19110287 43.0026551 4.33399068 43.2442955 4.37015435 43.5119443 4.40631803 43.7795932 4.33268216 44.0504894 4.166 44.263 4.01820532 44.4563758 3.88959808 44.663688 3.782 44.882L4 45.005C4.88372266 45.3858386 5.55718929 46.133445 5.844 47.052 5.98744969 47.7610021 5.95517732 48.4943401 5.75 49.188 5.704 49.396 5.657 49.603 5.63 49.81 5.5718248 50.4084181 5.65435419 51.0121497 5.871 51.573 6.08383364 52.5038495 6.99665112 53.0980879 7.934 52.916 10.8423509 52.2064953 13.710205 51.3402305 16.525 50.321H16.533C17.5 49.991 18.382 49.682 19.099 49.431 19.873 49.159 20.458 48.955 20.753 48.862 24.908 47.562 25.753 46.055 25.728 45.025 25.714004 44.4737891 26.1488227 44.0152612 26.7 44 26.9673143 43.9865473 27.2284044 44.083577 27.4220553 44.2683396 27.6157063 44.4531023 27.7248873 44.7093488 27.724 44.977 27.781 47.477 25.638 49.421 21.35 50.768 21.066 50.857 20.503 51.055 19.756 51.316L19.013 51.576C20.6653223 53.4045459 21.8715273 55.5910493 22.537 57.964L45.217 57.9C45.192 57.863 45.168 57.827 45.145 57.791 44.859067 57.3786191 44.6014742 56.9472931 44.374 56.5 43.8797529 55.4864338 43.4651669 54.4359263 43.134 53.358 42.5267049 51.3144917 42.1072966 49.2197932 41.881 47.1 41.770869 46.1756844 41.731088 45.2443401 41.762 44.314 41.1279795 46.1616829 39.2491768 47.2783961 37.3231433 46.9523451 35.3971099 46.6262941 33.9905471 44.9534136 34 43V42.816C32.8056491 42.3937454 32.0052514 41.2667854 32 40V38C32.0028941 36.7702998 32.7559409 35.6668879 33.9 35.216 33.532 33.716 32.146 32.631 30.683 31.5 29.8586161 30.9027636 29.0889236 30.2334657 28.383 29.5 26.1388212 26.9320628 24.9326101 23.6197065 25 20.21 25.0278976 13.0073776 30.7987493 7.14330443 38 7 41.503493 7.01797392 44.8455988 8.47515085 47.243 11.03 46.3034114 9.6952311 45.1660408 8.51132704 43.87 7.519 42.3308737 6.30034968 40.6775131 5.23338455 38.933 4.333 38.9741597 4.22663296 38.9968199 4.11400858 39 4V1c0-.55228475-.4477152999999987-1-1-1C37.4477153-338176876e-25 37 .44771525 37 1V3.454C34.1830036 2.32073412 31.1503136 1.82422121 28.119 2 24.9635938 2.22149173 21.8283844 2.67133628 18.738 3.346 14.646 4.17 11.714 5.564 9.776 7.609 8.19481497 9.29753093 6.97401487 11.2903476 6.188 13.466 5.84771161 14.4517958 5.57015681 15.4581407 5.357 16.479L5.272 16.844C5.03419434 17.7453236 4.70863874 18.6211753 4.3 19.459 4.109 19.887 3.917 20.314 3.753 20.75 3.6511555 20.9695269 3.59664129 21.2080266 3.593 21.45 3.636 21.757 4.018 22.107 4.422 22.477 5.24944933 23.0587468 5.78390252 23.970783 5.887 24.977 5.87280845 25.4557319 5.73981992 25.9234254 5.5 26.338 4.2497994 28.9723092 2.71750165 31.4632152.93 33.767.161 34.708.005 35.067.002 35.222.187090945 35.3962306.384978383 35.5563456.594 35.701.855843946 35.8831617 1.13209067 36.0436925 1.42 36.181zM23.858 5.858C24.2484999 5.46761806 24.8815001 5.46761806 25.272 5.858L27.394 7.979C27.7847415 8.36974146 27.7847414 9.00325853 27.394 9.39399999 27.0032585 9.78474145 26.3697415 9.78474145 25.979 9.394L23.858 7.272C23.4676181 6.88150015 23.4676181 6.24849985 23.858 5.858zM19 19h3C22.5522847 19 23 19.4477153 23 20 23 20.5522847 22.5522847 21 22 21H19C18.4477153 21 18 20.5522847 18 20 18 19.4477153 18.4477153 19 19 19zM7.22 17.341 7.32 16.908C7.51353582 15.9912196 7.76096528 15.0866495 8.061 14.199 8.75637306 12.2745624 9.83361627 10.5105639 11.228 9.013 12.7606426 7.53520641 14.6483921 6.47750189 16.709 5.942 17.0532577 5.82944433 17.4314681 5.91183364 17.6977164 6.1573819 17.9639648 6.40293017 18.0766292 6.7732514 17.9922433 7.12547458 17.9078574 7.47769775 17.6396132 7.75676066 17.291 7.855 15.564379 8.29286276 13.9780184 9.16400156 12.682 10.386 11.4735935 11.6858825 10.5402565 13.2165007 9.938 14.886 9.6689717 15.6919424 9.44627447 16.5126167 9.271 17.344L9.171 17.789C9.06595619 18.2417715 8.66279665 18.562476 8.198 18.563 8.12157993 18.5631865 8.04539878 18.5544609 7.971 18.537 7.43383317 18.4134377 7.09793771 17.8785097 7.22 17.341zM7 20C7.55228475 20 8 20.4477153 8 21 8 21.5522847 7.55228475 22 7 22 6.44771525 22 6 21.5522847 6 21 6 20.4477153 6.44771525 20 7 20z" id="Shape"/><rect id="Rectangle-path" x="34.001" y="37" width="8" height="4" rx="1"/><path id="Rectangle-path" d="M37.001 24h2v11h-2z"/><path d="M43.66 36.64C44.415365 35.2197239 45.2930157 33.8679478 46.283 32.6 46.865 31.815 47.467 31.005 47.989 30.182 48.7299162 29.0196503 49.2909173 27.7520037 49.653 26.422 49.1278076 27.540012 48.4444719 28.5766346 47.624 29.5 46.9178481 30.2332256 46.1481778 30.9025042 45.324 31.5 43.861 32.631 42.474 33.712 42.107 35.216 42.779812 35.4872845 43.3315328 35.9931766 43.66 36.64z" id="Shape"/><path d="M46.135 28.16C48.0403929 25.9677824 49.0616844 23.1448827 49 20.241 48.905 14.147 43.87 9 38 9 32.13 9 27.1 14.147 27 20.241 26.9374615 23.144846 27.9584638 25.9679315 29.864 28.16 30.4916066 28.8034185 31.1734592 29.3915917 31.902 29.918 33.0804642 30.7390301 34.1253896 31.7367349 35 32.876V24H34C32.3431458 24 31 22.6568542 31 21 31 19.3431458 32.3431458 18 34 18 35.6568542 18 37 19.3431458 37 21v1h2V21C39 19.3431458 40.3431458 18 42 18 43.6568542 18 45 19.3431458 45 21 45 22.6568542 43.6568542 24 42 24H41V32.876C41.8753526 31.7364184 42.9209331 30.738395 44.1 29.917 44.8275416 29.3908733 45.5083934 28.8030322 46.135 28.16z" id="Shape"/><path d="M43 21C43 20.4477153 42.5522847 20 42 20 41.4477153 20 41 20.4477153 41 21v1h1C42.5522847 22 43 21.5522847 43 21z" id="Shape"/></g></g></svg>