<svg id="Capa_1" xmlns="http://www.w3.org/2000/svg" xmlns:xlink="http://www.w3.org/1999/xlink" width="81.98" height="81.98" viewBox="0 0 81.98 81.98" style="enable-background:new 0 0 81.98 81.98" fill="#fac733"
	><g><g><path d="M49.279 63.166c4.929-2.688 7.394-7.84 7.169-11.424-1.568.0-3.138.0-4.703.0C51.295 55.549 50.623 59.359 49.279 63.166z"/><path d="M30.014 51.965c0-.225-.225-.225-.447-.225-1.345.0-2.912.0-4.257.0h-.225c-.224 4.48 2.912 9.408 7.393 11.648v-.226C31.135 59.359 30.239 55.775 30.014 51.965z"/><path d="M40.766 54.207 39.199 57.566 35.615 58.014 38.302 60.479 37.631 64.287 40.766 62.494 44.127 64.287 43.455 60.479 46.143 58.014 42.559 57.566z"/><path d="M69.664 47.486c-.449-1.344-1.344-1.344-2.465-1.79-5.152-2.019-9.855-2.912-14.783-4.706-.449-.225-1.793-1.119-1.793-3.584.0-1.119-.225-1.567-1.344-1.567-.447.0-.225.0-.447-.672-.449-2.24-.225-3.584-.225-4.032.0-.446.447-.672.447-.896 1.791-2.463 2.237-5.375 2.237-6.943.0.0.226.225.674-.672.447-1.12.447-1.344.896-2.688.447-.896.447-2.912-.672-2.912-.674.224-.446.0-.446-.896v-6.72c-.228-2.24-1.568-3.808-2.688-4.48-1.566-1.119-2.238-1.344-2.912-2.016-.896-.448-.896-1.12-.224-2.016C46.143.671 46.591.224 47.038.0v0 0h-.226v0c-.446.0-4.256.448-5.6.896-2.912.67-5.824 1.565-8.063 3.583-1.568 1.344-3.137 2.912-3.137 5.151.0 1.12.0 4.704.0 6.721.0.447.0.896-.447.672-1.568.0-.673 2.464-.448 2.688.448 1.568.672 1.792.896 2.912.225.896.447.672.447.672.448 1.792 1.12 5.152 2.465 6.943.225.225.447.449.447.896-.224 1.345-.224 2.688-.447 4.032.0.225-.225.672-.448.672-1.119.0-1.344.672-1.344 1.567.0 1.793-1.12 3.36-1.792 3.584-2.688 1.12-11.647 3.808-14.336 4.704-2.017.447-2.465 1.345-2.912 2.017l-2.465 6.496c8.961 6.496 15.904 10.08 21.057 11.873v0c1.12.672 2.24 1.344 2.912 2.463 1.12 1.567 2.464 2.912 4.031 3.584.0.896.0 1.567.0 2.465-1.344.0-2.688.673-3.359 1.791-.896 1.121-1.119 2.466-.896 4.033l.225 1.565h15.008l.225-1.565c.223-1.347.0-2.912-.896-4.033-.896-.896-2.016-1.565-3.358-1.791.0-.896.0-1.565.0-2.465 1.791-.896 3.135-2.24 4.03-3.81.672-1.118 1.793-2.016 2.912-2.463 6.943-2.239 15.681-6.049 20.832-11.873L69.664 47.486zM58.686 52.191c-.895 6.048-4.028 10.752-9.631 13.664-.896.445-1.565 1.119-2.24 2.017-1.119 1.567-2.237 2.688-4.03 3.358l-.226.226c0 1.791.0 3.584.0 5.601.447.0.896.0 1.346.0 1.791.0 3.136 1.567 2.689 3.358-4.033.0-7.842.0-11.874.0-.447-1.791.896-3.358 2.688-3.358.448.0 1.12.0 1.567.0.0-.226.0-.226.0-.447.0-1.568.0-3.359.0-4.93.0-.224.0-.447-.447-.447-1.568-.672-2.912-1.791-3.809-3.359-.673-.895-1.345-1.344-2.24-2.016-5.601-2.912-8.96-7.617-9.855-13.664.0-.672.0-1.121-.224-1.793.0-.226.0-.226.0-.447 2.464.0 4.703.0 7.168.0.0-.447.0-.895.0-1.568 7.392.0 14.559.0 21.952.0.0.449.0.896.0 1.568 2.465.0 4.703.0 7.168.0C58.686 50.398 58.686 51.293 58.686 52.191z"/></g></g><g/><g/><g/><g/><g/><g/><g/><g/><g/><g/><g/><g/><g/><g/><g/></svg>