<svg xmlns="http://www.w3.org/2000/svg" height="937.5pt" viewBox="0 0 937.5 937.5" width="937.5pt" fill="#e0be00"><g id="surface1"><path d="M810.9375 584.707031C811.945312 582.65625 812.476562 580.410156 812.5 578.125V187.5c34.515625.0 62.5-27.984375 62.5-62.5.0-34.515625-27.984375-62.5-62.5-62.5H125c-34.515625.0-62.5 27.984375-62.5 62.5.0 34.515625 27.984375 62.5 62.5 62.5V578.125C125 586.757812 131.992188 593.75 140.625 593.75h125V828.125C265.695312 888.5 314.625 937.429688 375 937.5H569.863281C619.214844 937.363281 664.921875 911.484375 690.433594 869.234375L817.53125 657.414062C831.546875 634.351562 828.867188 604.851562 810.9375 584.707031zM671.875 593.75h38.515625L671.875 651.5625zm-515.625-125h625V5e2h-625zM843.75 125C843.75 142.261719 829.761719 156.25 812.5 156.25V93.75C829.761719 93.75 843.75 107.738281 843.75 125zm-62.5-31.25V437.5h-625V93.75zM93.75 125c0-17.261719 13.988281-31.25 31.25-31.25v62.5c-17.261719.0-31.25-13.988281-31.25-31.25zm62.5 437.5V531.25h625V562.5zm634.484375 78.828125L663.640625 853.125C643.804688 885.984375 608.273438 906.125 569.890625 906.25H375C331.875 906.195312 296.929688 871.25 296.875 828.125V593.75h62.5v62.5h31.25v-62.5h62.5v62.5h31.25v-62.5h62.5v62.5h31.25v-62.5h62.5V687.5H593.75C516.117188 687.59375 453.21875 750.492188 453.125 828.125h31.25C484.445312 767.75 533.375 718.820312 593.75 718.75h62.5C661.464844 718.753906 666.347656 716.171875 669.25 711.84375L738.328125 608.210938C747.664062 594.199219 766.484375 590.195312 780.722656 599.210938 794.960938 608.207031 799.40625 626.929688 790.734375 641.367188zm0 0" style="stroke:none;fill-rule:nonzero;fill-opacity:1" /><path d="M921.875.0H15.625C6.992188.0.0 6.992188.0 15.625v218.75C0 243.007812 6.992188 250 15.625 250H93.75V218.75H31.25V31.25h875v187.5h-62.5V250h78.125C930.507812 250 937.5 243.007812 937.5 234.375V15.625C937.5 6.992188 930.507812.0 921.875.0zm0 0" style="stroke:none;fill-rule:nonzero;fill-opacity:1" /><path d="M203.125 359.375c17.261719.0 31.25 13.988280999999972 31.25 31.25C234.375 399.257812 241.367188 406.25 250 406.25H687.5C696.132812 406.25 703.125 399.257812 703.125 390.625 703.125 373.363281 717.113281 359.375 734.375 359.375 743.007812 359.375 750 352.382812 750 343.75V187.5C750 178.867188 743.007812 171.875 734.375 171.875c-17.26171899999997.0-31.25-13.988281-31.25-31.25C703.125 131.992188 696.132812 125 687.5 125H250C241.367188 125 234.375 131.992188 234.375 140.625c0 17.261719-13.988281 31.25-31.25 31.25C194.492188 171.875 187.5 178.867188 187.5 187.5V343.75C187.5 352.382812 194.492188 359.375 203.125 359.375zM375 265.625c0-60.308594 42.046875-109.375 93.75-109.375 51.703125.0 93.75 49.066406 93.75 109.375C562.5 325.933594 520.453125 375 468.75 375 417.046875 375 375 325.933594 375 265.625zM673.835938 156.25C679.570312 178.246094 696.753906 195.429688 718.75 201.164062V330.085938C696.753906 335.820312 679.570312 353.003906 673.835938 375H547.144531C577.335938 346.6875 594.242188 307.007812 593.75 265.625 594.242188 224.242188 577.335938 184.5625 547.144531 156.25zM218.75 201.164062C240.746094 195.429688 257.929688 178.246094 263.664062 156.25H390.355469C360.164062 184.5625 343.257812 224.242188 343.75 265.625 343.257812 307.007812 360.164062 346.6875 390.355469 375H263.664062C257.929688 353.003906 240.746094 335.820312 218.75 330.085938zm0 0" style="stroke:none;fill-rule:nonzero;fill-opacity:1" /><path d="M265.625 250h31.25v31.25h-31.25zm0 0" style="stroke:none;fill-rule:nonzero;fill-opacity:1" /><path d="M640.625 250h31.25v31.25h-31.25zm0 0" style="stroke:none;fill-rule:nonzero;fill-opacity:1" /><path d="M62.5 578.125H31.25C31.320312 638.5 80.25 687.429688 140.625 687.5V656.25C97.5 656.195312 62.554688 621.25 62.5 578.125zm0 0" style="stroke:none;fill-rule:nonzero;fill-opacity:1" /></g></svg>