<?xml version="1.0" encoding="iso-8859-1"?>
<!-- Generator: Adobe Illustrator 16.0.0, SVG Export Plug-In . SVG Version: 6.00 Build 0)  -->
<!DOCTYPE svg PUBLIC "-//W3C//DTD SVG 1.1//EN" "http://www.w3.org/Graphics/SVG/1.1/DTD/svg11.dtd">
<svg version="1.1" id="Capa_1" xmlns="http://www.w3.org/2000/svg" xmlns:xlink="http://www.w3.org/1999/xlink" x="0px" y="0px"
	 width="81.98px" height="81.98px" viewBox="0 0 81.98 81.98" style="enable-background:new 0 0 81.98 81.98;" xml:space="preserve" fill="#fac733"
	>
<g>
	<g>
		<path d="M49.279,63.166c4.929-2.688,7.394-7.84,7.169-11.424c-1.568,0-3.138,0-4.703,0C51.295,55.549,50.623,59.359,49.279,63.166
			z"/>
		<path d="M30.014,51.965c0-0.225-0.225-0.225-0.447-0.225c-1.345,0-2.912,0-4.257,0h-0.225c-0.224,4.48,2.912,9.408,7.393,11.648
			v-0.226C31.135,59.359,30.239,55.775,30.014,51.965z"/>
		<polygon points="40.766,54.207 39.199,57.566 35.615,58.014 38.302,60.479 37.631,64.287 40.766,62.494 44.127,64.287 
			43.455,60.479 46.143,58.014 42.559,57.566 		"/>
		<path d="M69.664,47.486c-0.449-1.344-1.344-1.344-2.465-1.79c-5.152-2.019-9.855-2.912-14.783-4.706
			c-0.449-0.225-1.793-1.119-1.793-3.584c0-1.119-0.225-1.567-1.344-1.567c-0.447,0-0.225,0-0.447-0.672
			c-0.449-2.24-0.225-3.584-0.225-4.032c0-0.446,0.447-0.672,0.447-0.896c1.791-2.463,2.237-5.375,2.237-6.943
			c0,0,0.226,0.225,0.674-0.672c0.447-1.12,0.447-1.344,0.896-2.688c0.447-0.896,0.447-2.912-0.672-2.912
			c-0.674,0.224-0.446,0-0.446-0.896v-6.72c-0.228-2.24-1.568-3.808-2.688-4.48c-1.566-1.119-2.238-1.344-2.912-2.016
			c-0.896-0.448-0.896-1.12-0.224-2.016C46.143,0.671,46.591,0.224,47.038,0l0,0l0,0h-0.226l0,0c-0.446,0-4.256,0.448-5.6,0.896
			c-2.912,0.67-5.824,1.565-8.063,3.583c-1.568,1.344-3.137,2.912-3.137,5.151c0,1.12,0,4.704,0,6.721c0,0.447,0,0.896-0.447,0.672
			c-1.568,0-0.673,2.464-0.448,2.688c0.448,1.568,0.672,1.792,0.896,2.912c0.225,0.896,0.447,0.672,0.447,0.672
			c0.448,1.792,1.12,5.152,2.465,6.943c0.225,0.225,0.447,0.449,0.447,0.896c-0.224,1.345-0.224,2.688-0.447,4.032
			c0,0.225-0.225,0.672-0.448,0.672c-1.119,0-1.344,0.672-1.344,1.567c0,1.793-1.12,3.36-1.792,3.584
			c-2.688,1.12-11.647,3.808-14.336,4.704c-2.017,0.447-2.465,1.345-2.912,2.017l-2.465,6.496
			c8.961,6.496,15.904,10.08,21.057,11.873l0,0c1.12,0.672,2.24,1.344,2.912,2.463c1.12,1.567,2.464,2.912,4.031,3.584
			c0,0.896,0,1.567,0,2.465c-1.344,0-2.688,0.673-3.359,1.791c-0.896,1.121-1.119,2.466-0.896,4.033l0.225,1.565h15.008l0.225-1.565
			c0.223-1.347,0-2.912-0.896-4.033c-0.896-0.896-2.016-1.565-3.358-1.791c0-0.896,0-1.565,0-2.465
			c1.791-0.896,3.135-2.24,4.03-3.81c0.672-1.118,1.793-2.016,2.912-2.463c6.943-2.239,15.681-6.049,20.832-11.873L69.664,47.486z
			 M58.686,52.191c-0.895,6.048-4.028,10.752-9.631,13.664c-0.896,0.445-1.565,1.119-2.24,2.017
			c-1.119,1.567-2.237,2.688-4.03,3.358l-0.226,0.226c0,1.791,0,3.584,0,5.601c0.447,0,0.896,0,1.346,0
			c1.791,0,3.136,1.567,2.689,3.358c-4.033,0-7.842,0-11.874,0c-0.447-1.791,0.896-3.358,2.688-3.358c0.448,0,1.12,0,1.567,0
			c0-0.226,0-0.226,0-0.447c0-1.568,0-3.359,0-4.93c0-0.224,0-0.447-0.447-0.447c-1.568-0.672-2.912-1.791-3.809-3.359
			c-0.673-0.895-1.345-1.344-2.24-2.016c-5.601-2.912-8.96-7.617-9.855-13.664c0-0.672,0-1.121-0.224-1.793c0-0.226,0-0.226,0-0.447
			c2.464,0,4.703,0,7.168,0c0-0.447,0-0.895,0-1.568c7.392,0,14.559,0,21.952,0c0,0.449,0,0.896,0,1.568c2.465,0,4.703,0,7.168,0
			C58.686,50.398,58.686,51.293,58.686,52.191z"/>
	</g>
</g>
<g>
</g>
<g>
</g>
<g>
</g>
<g>
</g>
<g>
</g>
<g>
</g>
<g>
</g>
<g>
</g>
<g>
</g>
<g>
</g>
<g>
</g>
<g>
</g>
<g>
</g>
<g>
</g>
<g>
</g>
</svg>
